<svg id="email-icon" xmlns="http://www.w3.org/2000/svg" viewBox="0 0 75 75">
  <title>email-semi-round</title>
  <g>
    <rect x="0.4" y="0.4" width="74.2" height="74.18" rx="9.6" ry="9.6" fill="#1b1464"/>
    <path d="M73.6,9.3a9.2,9.2,0,0,1,9.1,9.2v55a9.2,9.2,0,0,1-9.1,9.1h-55a9.2,9.2,0,0,1-9.2-9.1v-55a9.2,9.2,0,0,1,9.2-9.2h55m0-.8h-55a10,10,0,0,0-10,10v55a10,10,0,0,0,10,9.9h55a10,10,0,0,0,9.9-9.9v-55A10,10,0,0,0,73.6,8.5Z" transform="translate(-8.5 -8.5)" fill="#1b1464"/>
  </g>
  <g id="letter">
    <g>
      <path d="M26.8,31.6l16.4,13a4.2,4.2,0,0,0,2.8.8,4.2,4.2,0,0,0,2.8-.8L65,31.6c1.3-1.1,1-1.9-.7-1.9H27.4C25.8,29.7,25.5,30.5,26.8,31.6Z" transform="translate(-8.5 -8.5)" fill="#f2f2f2"/>
      <path d="M66.4,35.8,48.4,49.3a4.4,4.4,0,0,1-4.9,0L25.6,35.8c-1.3-1-2.4-.5-2.4,1.2V59.3a3,3,0,0,0,3,3H65.8a3,3,0,0,0,3-3V37C68.8,35.3,67.8,34.8,66.4,35.8Z" transform="translate(-8.5 -8.5)" fill="#f2f2f2"/>
    </g>
  </g>
</svg>
