<svg id="email-icon" xmlns="http://www.w3.org/2000/svg" viewBox="0 0 87 87">
  <title>so-semi-round</title>
  <g>
    <rect x="0.5" y="0.5" width="86.1" height="86.05" rx="11.2" ry="11.2" fill="#1b1464"/>
    <path d="M79,4.4A10.7,10.7,0,0,1,89.6,15.1V79A10.7,10.7,0,0,1,79,89.6H15.1A10.7,10.7,0,0,1,4.4,79V15.1A10.7,10.7,0,0,1,15.1,4.4H79m0-.9H15.1A11.6,11.6,0,0,0,3.5,15.1V79A11.6,11.6,0,0,0,15.1,90.5H79A11.6,11.6,0,0,0,90.5,79V15.1A11.6,11.6,0,0,0,79,3.5Z" transform="translate(-3.5 -3.5)" fill="#1b1464"/>
  </g>
  <g id="icon">
    <polygon points="59.7 66.8 59.7 50.4 64.7 50.4 64.7 72.5 15.5 72.5 15.5 50.4 21.2 50.4 21.2 66.8 59.7 66.8" fill="#fff"/>
    <path d="M30.5,52.5l26.9,5.6,1.1-5.4L31.7,47.1Zm3.6-12.8,25,11.6,2.3-5-25-11.7ZM41,27.4,62.2,45l3.5-4.2L44.5,23.2Zm13.7-13-4.4,3.3,16.4,22,4.4-3.3Zm-25,51H57.5V59.6H29.7Z" transform="translate(-3.5 -3.5)" fill="#fff"/>
  </g>
</svg>
