<svg id="email-icon" xmlns="http://www.w3.org/2000/svg" viewBox="0 0 87 87">
  <title>gh-semi-round</title>
  <g>
    <rect x="0.5" y="0.5" width="86.1" height="86.05" rx="11.2" ry="11.2" fill="#1b1464"/>
    <path d="M79,4.4A10.7,10.7,0,0,1,89.6,15.1V79A10.7,10.7,0,0,1,79,89.6H15.1A10.7,10.7,0,0,1,4.4,79V15.1A10.7,10.7,0,0,1,15.1,4.4H79m0-.9H15.1A11.6,11.6,0,0,0,3.5,15.1V79A11.6,11.6,0,0,0,15.1,90.5H79A11.6,11.6,0,0,0,90.5,79V15.1A11.6,11.6,0,0,0,79,3.5Z" transform="translate(-3.5 -3.5)" fill="#1b1464"/>
  </g>
  <g id="icon">
    <g>
      <path d="M69.1,35.2a17.6,17.6,0,0,0,.9-5.6,16,16,0,0,0-1.7-7.2A14.5,14.5,0,0,0,62,23.6a34.7,34.7,0,0,0-6.2,4,39.4,39.4,0,0,0-9.3-1.1,44.2,44.2,0,0,0-10.3,1.2,35.7,35.7,0,0,0-6.3-4.1,14.4,14.4,0,0,0-6.3-1.3,16,16,0,0,0-1.7,7.2,18,18,0,0,0,.9,5.7,19.5,19.5,0,0,0-4.5,13.2q0,6.9,2.1,11a13.8,13.8,0,0,0,2.9,3.8,14.7,14.7,0,0,0,4,2.7,35,35,0,0,0,4.6,1.7,29.5,29.5,0,0,0,5.1,1l4.9.4H52a48.9,48.9,0,0,0,5.7-.7,28.5,28.5,0,0,0,5.7-1.6A18,18,0,0,0,68,63.8a13.4,13.4,0,0,0,3.5-4.4q2-4.1,2-11A19.7,19.7,0,0,0,69.1,35.2Zm-4,24.2a9.4,9.4,0,0,1-2.7,3.4,12.9,12.9,0,0,1-4.1,2,24.4,24.4,0,0,1-4.7,1l-5,.2H43.1l-5-.2a24.4,24.4,0,0,1-4.7-1,12.9,12.9,0,0,1-4.1-2,9.4,9.4,0,0,1-2.7-3.4,11.5,11.5,0,0,1-1.1-5.1A10.3,10.3,0,0,1,28,47.5a7.6,7.6,0,0,1,6.2-2.8,63.9,63.9,0,0,1,6.5.7,37.4,37.4,0,0,0,10.4,0l6.5-.7a7.6,7.6,0,0,1,6.2,2.8,10.3,10.3,0,0,1,2.3,6.8A11.5,11.5,0,0,1,65.1,59.4Z" transform="translate(-3.5 -3.5)" fill="#fff"/>
      <path d="M37.7,49a3.1,3.1,0,0,0-4.4-.4l-.4.4a6.5,6.5,0,0,0-1.4,2.5,9.2,9.2,0,0,0,0,5.5,6.5,6.5,0,0,0,1.4,2.5,3.1,3.1,0,0,0,4.4.4l.4-.4A6.5,6.5,0,0,0,39.1,57a9.2,9.2,0,0,0,0-5.5A6.6,6.6,0,0,0,37.7,49Z" transform="translate(-3.5 -3.5)" fill="#fff"/>
      <path d="M59,49a3.1,3.1,0,0,0-4.4-.4l-.4.4a6.5,6.5,0,0,0-1.4,2.5,9.1,9.1,0,0,0,0,5.5,6.5,6.5,0,0,0,1.4,2.5,3.1,3.1,0,0,0,4.4.4l.4-.4A6.6,6.6,0,0,0,60.4,57a9.2,9.2,0,0,0,0-5.5A6.6,6.6,0,0,0,59,49Z" transform="translate(-3.5 -3.5)" fill="#fff"/>
    </g>
  </g>
</svg>
