<svg id="email-icon" xmlns="http://www.w3.org/2000/svg" viewBox="0 0 87 87">
  <title>linkedin-semi-round</title>
  <g>
    <rect x="0.5" y="0.5" width="86.1" height="86.05" rx="11.2" ry="11.2" fill="#1b1464"/>
    <path d="M79,4.4A10.7,10.7,0,0,1,89.6,15.1V79A10.7,10.7,0,0,1,79,89.6H15.1A10.7,10.7,0,0,1,4.4,79V15.1A10.7,10.7,0,0,1,15.1,4.4H79m0-.9H15.1A11.6,11.6,0,0,0,3.5,15.1V79A11.6,11.6,0,0,0,15.1,90.5H79A11.6,11.6,0,0,0,90.5,79V15.1A11.6,11.6,0,0,0,79,3.5Z" transform="translate(-3.5 -3.5)" fill="#1b1464"/>
  </g>
  <path id="LinkedIn" d="M69,50.3V67H59.4V51.5c0-3.9-1.4-6.6-4.9-6.6a5.3,5.3,0,0,0-5,3.5,6.6,6.6,0,0,0-.3,2.4V67H39.5s.1-26.3,0-29h9.7v4.1h0a9.6,9.6,0,0,1,8.7-4.8C64.2,37.3,69,41.4,69,50.3ZM29.5,24c-3.3,0-5.5,2.2-5.5,5a5,5,0,0,0,5,5h.4c3.4,0,5.5-2.2,5.5-5a5,5,0,0,0-5-5ZM24.6,67h9.6V38H24.6Z" transform="translate(-3.5 -3.5)" fill="#fff"/>
</svg>
